<svg role="img" width="100%" viewBox="0 0 680 450" xmlns="http://www.w3.org/2000/svg">
  <title>2.5D and 3D advanced packaging cross-section comparison</title>
  <desc>Side-by-side cross-sections showing 2.5D silicon interposer packaging and 3D die stacking packaging with labeled layers</desc>

  <defs>
    <marker id="arrow" viewBox="0 0 10 10" refX="8" refY="5" markerWidth="6" markerHeight="6" orient="auto-start-reverse">
      <path d="M2 1L8 5L2 9" fill="none" stroke="context-stroke" stroke-width="1.5" stroke-linecap="round" stroke-linejoin="round"/>
    </marker>
  </defs>

  <style>
    .t  { font-family: -apple-system, "PingFang SC", "Microsoft YaHei", sans-serif; font-size: 14px; fill: #3C3489; font-weight: 500; }
    .th { font-family: -apple-system, "PingFang SC", "Microsoft YaHei", sans-serif; font-size: 13px; fill: #3C3489; font-weight: 500; }
    .ts { font-family: -apple-system, "PingFang SC", "Microsoft YaHei", sans-serif; font-size: 12px; fill: #5F5E5A; font-weight: 400; }
    .tx { font-family: -apple-system, "PingFang SC", "Microsoft YaHei", sans-serif; font-size: 11px; fill: #5F5E5A; font-weight: 400; }
    .tl { font-family: -apple-system, "PingFang SC", "Microsoft YaHei", sans-serif; font-size: 11px; fill: #444441; font-weight: 400; }
    .leader { fill: none; stroke: #B4B2A9; stroke-width: 0.5; stroke-dasharray: 3 3; }
    .hline  { fill: none; stroke: #5F5E5A; stroke-width: 0.5; }
  </style>

  <line x1="340" y1="45" x2="340" y2="400" stroke="#D3D1C7" stroke-width="0.5" stroke-dasharray="4 4"/>

  <text class="t" x="165" y="35" text-anchor="middle">2.5D 封装（硅中介层互联）</text>
  <text class="t" x="505" y="35" text-anchor="middle">3D 封装（芯片垂直堆叠）</text>

  <!-- ===== 2.5D SIDE ===== -->

  <rect x="75" y="55" width="90" height="58" rx="3" fill="#E6F1FB" stroke="#185FA5" stroke-width="0.5"/>
  <text class="th" x="120" y="82" text-anchor="middle" dominant-baseline="central">逻辑芯片</text>
  <text class="tx" x="120" y="98" text-anchor="middle" dominant-baseline="central">(Logic Die)</text>

  <rect x="180" y="55" width="90" height="58" rx="3" fill="#EEEDFE" stroke="#534AB7" stroke-width="0.5"/>
  <text class="th" x="225" y="76" text-anchor="middle" dominant-baseline="central">HBM DRAM</text>
  <text class="tx" x="225" y="92" text-anchor="middle" dominant-baseline="central">(4-8层堆叠)</text>
  <line x1="184" y1="60" x2="266" y2="60" stroke="#AFA9EC" stroke-width="0.3"/>
  <line x1="184" y1="64" x2="266" y2="64" stroke="#AFA9EC" stroke-width="0.3"/>
  <line x1="184" y1="68" x2="266" y2="68" stroke="#AFA9EC" stroke-width="0.3"/>
  <line x1="184" y1="72" x2="266" y2="72" stroke="#AFA9EC" stroke-width="0.3"/>

  <rect x="100" y="114" width="8" height="6" rx="1" fill="#888780" stroke="#5F5E5A" stroke-width="0.3"/>
  <rect x="115" y="114" width="8" height="6" rx="1" fill="#888780" stroke="#5F5E5A" stroke-width="0.3"/>
  <rect x="130" y="114" width="8" height="6" rx="1" fill="#888780" stroke="#5F5E5A" stroke-width="0.3"/>
  <rect x="205" y="114" width="8" height="6" rx="1" fill="#888780" stroke="#5F5E5A" stroke-width="0.3"/>
  <rect x="220" y="114" width="8" height="6" rx="1" fill="#888780" stroke="#5F5E5A" stroke-width="0.3"/>
  <rect x="235" y="114" width="8" height="6" rx="1" fill="#888780" stroke="#5F5E5A" stroke-width="0.3"/>

  <rect x="63" y="121" width="214" height="5" rx="1" fill="#F4C0D1" stroke="#993556" stroke-width="0.5"/>
  <text class="tx" x="283" y="126" text-anchor="start" dominant-baseline="central">RDL</text>

  <rect x="60" y="127" width="220" height="78" rx="5" fill="#E1F5EE" stroke="#0F6E56" stroke-width="0.5"/>
  <text class="th" x="170" y="145" text-anchor="middle" dominant-baseline="central">硅中介层 (Silicon Interposer)</text>
  <text class="tx" x="170" y="162" text-anchor="middle" dominant-baseline="central">无源硅基板，含多层金属布线</text>

  <line x1="108" y1="134" x2="108" y2="198" stroke="#D85A30" stroke-width="2" stroke-opacity="0.7"/>
  <line x1="170" y1="134" x2="170" y2="198" stroke="#D85A30" stroke-width="2" stroke-opacity="0.7"/>
  <line x1="232" y1="134" x2="232" y2="198" stroke="#D85A30" stroke-width="2" stroke-opacity="0.7"/>

  <text class="tl" x="96" y="192" text-anchor="end" dominant-baseline="central">TSV</text>
  <text class="tl" x="158" y="192" text-anchor="end" dominant-baseline="central">TSV</text>
  <text class="tl" x="220" y="192" text-anchor="end" dominant-baseline="central">TSV</text>

  <rect x="63" y="206" width="214" height="5" rx="1" fill="#F4C0D1" stroke="#993556" stroke-width="0.5"/>
  <text class="tx" x="283" y="211" text-anchor="start" dominant-baseline="central">RDL</text>

  <circle cx="95" cy="219" r="4" fill="#B4B2A9" stroke="#5F5E5A" stroke-width="0.3"/>
  <circle cx="125" cy="219" r="4" fill="#B4B2A9" stroke="#5F5E5A" stroke-width="0.3"/>
  <circle cx="155" cy="219" r="4" fill="#B4B2A9" stroke="#5F5E5A" stroke-width="0.3"/>
  <circle cx="185" cy="219" r="4" fill="#B4B2A9" stroke="#5F5E5A" stroke-width="0.3"/>
  <circle cx="215" cy="219" r="4" fill="#B4B2A9" stroke="#5F5E5A" stroke-width="0.3"/>
  <circle cx="245" cy="219" r="4" fill="#B4B2A9" stroke="#5F5E5A" stroke-width="0.3"/>

  <rect x="48" y="226" width="244" height="40" rx="4" fill="#FAEEDA" stroke="#854F0B" stroke-width="0.5"/>
  <text class="th" x="170" y="244" text-anchor="middle" dominant-baseline="central">ABF 封装基板</text>
  <text class="tx" x="170" y="259" text-anchor="middle" dominant-baseline="central">多层有机基板 (Package Substrate)</text>

  <circle cx="80" cy="275" r="4.5" fill="#D3D1C7" stroke="#888780" stroke-width="0.3"/>
  <circle cx="110" cy="275" r="4.5" fill="#D3D1C7" stroke="#888780" stroke-width="0.3"/>
  <circle cx="140" cy="275" r="4.5" fill="#D3D1C7" stroke="#888780" stroke-width="0.3"/>
  <circle cx="170" cy="275" r="4.5" fill="#D3D1C7" stroke="#888780" stroke-width="0.3"/>
  <circle cx="200" cy="275" r="4.5" fill="#D3D1C7" stroke="#888780" stroke-width="0.3"/>
  <circle cx="230" cy="275" r="4.5" fill="#D3D1C7" stroke="#888780" stroke-width="0.3"/>
  <circle cx="260" cy="275" r="4.5" fill="#D3D1C7" stroke="#888780" stroke-width="0.3"/>

  <rect x="38" y="282" width="264" height="18" rx="3" fill="#EAF3DE" stroke="#3B6D11" stroke-width="0.5"/>
  <text class="tx" x="170" y="294" text-anchor="middle" dominant-baseline="central">PCB / 主板</text>

  <line x1="110" y1="55" x2="110" y2="40" stroke="#B4B2A9" stroke-width="0.5" stroke-dasharray="2 2"/>
  <line x1="110" y1="40" x2="28" y2="40" stroke="#B4B2A9" stroke-width="0.5"/>
  <line x1="130" y1="117" x2="25" y2="117" stroke="#B4B2A9" stroke-width="0.5" stroke-dasharray="2 2"/>
  <text class="ts" x="65" y="40" text-anchor="middle" dominant-baseline="central">芯片 (Die)</text>
  <text class="ts" x="25" y="112" text-anchor="end" dominant-baseline="central">微凸块 (μbump)</text>

  <line x1="283" y1="128" x2="310" y2="128" stroke="#B4B2A9" stroke-width="0.5" stroke-dasharray="2 2"/>
  <text class="ts" x="312" y="128" text-anchor="start" dominant-baseline="central">重布线层</text>

  <line x1="108" y1="200" x2="82" y2="350" stroke="#B4B2A9" stroke-width="0.5" stroke-dasharray="2 2"/>
  <circle cx="82" cy="350" r="3" fill="none" stroke="#B4B2A9" stroke-width="0.5"/>

  <text class="tl" x="310" y="157" text-anchor="start">微米级金属布线</text>

  <line x1="245" y1="219" x2="300" y2="219" stroke="#B4B2A9" stroke-width="0.5" stroke-dasharray="2 2"/>
  <text class="ts" x="300" y="214" text-anchor="start" dominant-baseline="central">C4 凸块</text>

  <line x1="260" y1="275" x2="300" y2="275" stroke="#B4B2A9" stroke-width="0.5" stroke-dasharray="2 2"/>
  <text class="ts" x="300" y="270" text-anchor="start" dominant-baseline="central">BGA 焊球</text>

  <rect x="20" y="322" width="136" height="68" rx="6" fill="none" stroke="#D3D1C7" stroke-width="0.5"/>
  <text class="th" x="88" y="340" text-anchor="middle">关键结构放大</text>
  <line x1="45" y1="350" x2="105" y2="350" stroke="#D85A30" stroke-width="2" stroke-opacity="0.7"/>
  <text class="tx" x="110" y="350" text-anchor="start" dominant-baseline="central">TSV × 3（铜填充）</text>
  <rect x="22" y="356" width="12" height="4" rx="1" fill="#F4C0D1" stroke="#993556" stroke-width="0.5"/>
  <text class="tx" x="45" y="360" text-anchor="start" dominant-baseline="central">薄膜沉积 + 光刻图案化</text>
  <rect x="55" y="370" width="8" height="5" rx="1" fill="#888780" stroke="#5F5E5A" stroke-width="0.3"/>
  <text class="tx" x="45" y="380" text-anchor="start" dominant-baseline="central">微凸块：铜柱 + 锡银焊料</text>

  <!-- ===== 3D SIDE ===== -->

  <rect x="390" y="55" width="230" height="32" rx="3" fill="#EEEDFE" stroke="#534AB7" stroke-width="0.5"/>
  <text class="th" x="505" y="66" text-anchor="middle" dominant-baseline="central">Die 4 — 存储芯片 (DRAM)</text>
  <text class="tx" x="505" y="80" text-anchor="middle" dominant-baseline="central">~40μm 厚</text>

  <line x1="440" y1="55" x2="440" y2="87" stroke="#D85A30" stroke-width="2" stroke-opacity="0.7"/>
  <line x1="505" y1="55" x2="505" y2="87" stroke="#D85A30" stroke-width="2" stroke-opacity="0.7"/>
  <line x1="570" y1="55" x2="570" y2="87" stroke="#D85A30" stroke-width="2" stroke-opacity="0.7"/>

  <rect x="390" y="87" width="230" height="6" rx="1" fill="#F4C0D1" stroke="#993556" stroke-width="0.5"/>
  <text class="tx" x="505" y="91" text-anchor="middle" dominant-baseline="central">Cu-Cu 混合键合</text>

  <rect x="388" y="93" width="234" height="32" rx="3" fill="#EEEDFE" stroke="#534AB7" stroke-width="0.5"/>
  <text class="th" x="505" y="104" text-anchor="middle" dominant-baseline="central">Die 3 — 存储芯片 (DRAM)</text>
  <text class="tx" x="505" y="118" text-anchor="middle" dominant-baseline="central">~50μm 厚</text>

  <line x1="440" y1="93" x2="440" y2="125" stroke="#D85A30" stroke-width="2" stroke-opacity="0.7"/>
  <line x1="505" y1="93" x2="505" y2="125" stroke="#D85A30" stroke-width="2" stroke-opacity="0.7"/>
  <line x1="570" y1="93" x2="570" y2="125" stroke="#D85A30" stroke-width="2" stroke-opacity="0.7"/>

  <rect x="390" y="125" width="230" height="6" rx="1" fill="#F4C0D1" stroke="#993556" stroke-width="0.5"/>
  <text class="tx" x="505" y="129" text-anchor="middle" dominant-baseline="central">Cu-Cu 混合键合</text>

  <rect x="386" y="131" width="238" height="34" rx="3" fill="#E6F1FB" stroke="#185FA5" stroke-width="0.5"/>
  <text class="th" x="505" y="143" text-anchor="middle" dominant-baseline="central">Die 2 — 逻辑芯片 (Logic)</text>
  <text class="tx" x="505" y="158" text-anchor="middle" dominant-baseline="central">~60μm 厚</text>

  <line x1="440" y1="131" x2="440" y2="165" stroke="#D85A30" stroke-width="2" stroke-opacity="0.7"/>
  <line x1="505" y1="131" x2="505" y2="165" stroke="#D85A30" stroke-width="2" stroke-opacity="0.7"/>
  <line x1="570" y1="131" x2="570" y2="165" stroke="#D85A30" stroke-width="2" stroke-opacity="0.7"/>

  <rect x="388" y="165" width="234" height="6" rx="1" fill="#F4C0D1" stroke="#993556" stroke-width="0.5"/>
  <text class="tx" x="505" y="169" text-anchor="middle" dominant-baseline="central">Cu-Cu 混合键合</text>

  <rect x="384" y="171" width="242" height="38" rx="3" fill="#E6F1FB" stroke="#185FA5" stroke-width="0.5"/>
  <text class="th" x="505" y="185" text-anchor="middle" dominant-baseline="central">Die 1 — 基础芯片 (Base Die)</text>
  <text class="tx" x="505" y="202" text-anchor="middle" dominant-baseline="central">含 TSV / 底部金属化层 / ~80μm 厚</text>

  <line x1="440" y1="171" x2="440" y2="209" stroke="#D85A30" stroke-width="2" stroke-opacity="0.7"/>
  <line x1="505" y1="171" x2="505" y2="209" stroke="#D85A30" stroke-width="2" stroke-opacity="0.7"/>
  <line x1="570" y1="171" x2="570" y2="209" stroke="#D85A30" stroke-width="2" stroke-opacity="0.7"/>

  <polygon points="395,87 400,87 397,90" fill="#FAC775" opacity="0.6"/>
  <polygon points="615,87 610,87 613,90" fill="#FAC775" opacity="0.6"/>
  <polygon points="395,165 400,165 397,168" fill="#FAC775" opacity="0.6"/>
  <polygon points="615,165 610,165 613,168" fill="#FAC775" opacity="0.6"/>
  <text class="tx" x="353" y="92" text-anchor="end" dominant-baseline="central">填充胶</text>
  <text class="tx" x="353" y="168" text-anchor="end" dominant-baseline="central">填充胶</text>

  <circle cx="415" cy="219" r="4" fill="#B4B2A9" stroke="#5F5E5A" stroke-width="0.3"/>
  <circle cx="445" cy="219" r="4" fill="#B4B2A9" stroke="#5F5E5A" stroke-width="0.3"/>
  <circle cx="475" cy="219" r="4" fill="#B4B2A9" stroke="#5F5E5A" stroke-width="0.3"/>
  <circle cx="505" cy="219" r="4" fill="#B4B2A9" stroke="#5F5E5A" stroke-width="0.3"/>
  <circle cx="535" cy="219" r="4" fill="#B4B2A9" stroke="#5F5E5A" stroke-width="0.3"/>
  <circle cx="565" cy="219" r="4" fill="#B4B2A9" stroke="#5F5E5A" stroke-width="0.3"/>
  <circle cx="595" cy="219" r="4" fill="#B4B2A9" stroke="#5F5E5A" stroke-width="0.3"/>

  <rect x="378" y="226" width="254" height="40" rx="4" fill="#FAEEDA" stroke="#854F0B" stroke-width="0.5"/>
  <text class="th" x="505" y="244" text-anchor="middle" dominant-baseline="central">ABF 封装基板</text>
  <text class="tx" x="505" y="259" text-anchor="middle" dominant-baseline="central">多层有机基板 (Package Substrate)</text>

  <circle cx="410" cy="275" r="4.5" fill="#D3D1C7" stroke="#888780" stroke-width="0.3"/>
  <circle cx="438" cy="275" r="4.5" fill="#D3D1C7" stroke="#888780" stroke-width="0.3"/>
  <circle cx="466" cy="275" r="4.5" fill="#D3D1C7" stroke="#888780" stroke-width="0.3"/>
  <circle cx="494" cy="275" r="4.5" fill="#D3D1C7" stroke="#888780" stroke-width="0.3"/>
  <circle cx="522" cy="275" r="4.5" fill="#D3D1C7" stroke="#888780" stroke-width="0.3"/>
  <circle cx="550" cy="275" r="4.5" fill="#D3D1C7" stroke="#888780" stroke-width="0.3"/>
  <circle cx="578" cy="275" r="4.5" fill="#D3D1C7" stroke="#888780" stroke-width="0.3"/>
  <circle cx="606" cy="275" r="4.5" fill="#D3D1C7" stroke="#888780" stroke-width="0.3"/>

  <rect x="368" y="282" width="274" height="18" rx="3" fill="#EAF3DE" stroke="#3B6D11" stroke-width="0.5"/>
  <text class="tx" x="505" y="294" text-anchor="middle" dominant-baseline="central">PCB / 主板</text>

  <line x1="570" y1="55" x2="570" y2="209" stroke="#D85A30" stroke-width="2" stroke-opacity="0.5"/>
  <line x1="570" y1="132" x2="650" y2="132" stroke="#B4B2A9" stroke-width="0.5" stroke-dasharray="2 2"/>
  <text class="ts" x="650" y="128" text-anchor="start" dominant-baseline="central">TSV 贯穿</text>
  <text class="ts" x="650" y="142" text-anchor="start" dominant-baseline="central">所有芯片层</text>

  <line x1="620" y1="66" x2="650" y2="66" stroke="#B4B2A9" stroke-width="0.5" stroke-dasharray="2 2"/>
  <text class="ts" x="652" y="62" text-anchor="start" dominant-baseline="central">晶圆减薄</text>
  <text class="tx" x="652" y="76" text-anchor="start">至 40–80μm</text>

  <line x1="620" y1="119" x2="655" y2="119" stroke="#B4B2A9" stroke-width="0.5" stroke-dasharray="2 2"/>
  <text class="ts" x="655" y="114" text-anchor="start" dominant-baseline="central">混合键合</text>
  <text class="tx" x="655" y="128" text-anchor="start">Cu-Cu + 介电层</text>

  <line x1="615" y1="89" x2="655" y2="89" stroke="#B4B2A9" stroke-width="0.5" stroke-dasharray="2 2"/>
  <text class="ts" x="655" y="85" text-anchor="start" dominant-baseline="central">底部填充</text>
  <text class="tx" x="655" y="99" text-anchor="start">毛细填充胶</text>

  <line x1="595" y1="219" x2="650" y2="219" stroke="#B4B2A9" stroke-width="0.5" stroke-dasharray="2 2"/>
  <text class="ts" x="650" y="214" text-anchor="start" dominant-baseline="central">C4 凸块</text>

  <line x1="606" y1="275" x2="650" y2="275" stroke="#B4B2A9" stroke-width="0.5" stroke-dasharray="2 2"/>
  <text class="ts" x="650" y="270" text-anchor="start" dominant-baseline="central">BGA 焊球</text>

  <rect x="362" y="322" width="152" height="68" rx="6" fill="none" stroke="#D3D1C7" stroke-width="0.5"/>
  <text class="th" x="438" y="340" text-anchor="middle">关键工艺节点</text>
  <rect x="370" y="349" width="8" height="5" rx="1" fill="none" stroke="#D85A30" stroke-width="0.8"/>
  <text class="tx" x="385" y="354" text-anchor="start" dominant-baseline="central">TSV 刻蚀 + 铜电镀填充</text>
  <rect x="370" y="365" width="50" height="3" rx="1" fill="#F4C0D1" opacity="0.8"/>
  <text class="tx" x="427" y="368" text-anchor="start" dominant-baseline="central">混合键合：Cu-Cu / SiO₂-SiO₂</text>
  <text class="tx" x="370" y="384" text-anchor="start" dominant-baseline="central">晶圆减薄 + CMP 平坦化</text>

  <text class="th" x="505" y="330" text-anchor="middle">两者对比</text>
  <text class="tx" x="505" y="350" text-anchor="start">2.5D：芯片水平排列，依赖硅中介层布线</text>
  <text class="tx" x="505" y="368" text-anchor="start">3D：芯片直接堆叠，TSV 贯穿每层芯片</text>
  <text class="tx" x="505" y="386" text-anchor="start">3D 带宽更高、功耗更低，但散热更难</text>
</svg>
