<svg width="100%" viewBox="0 0 680 580" xmlns="http://www.w3.org/2000/svg" role="img">
  <title>先进封装产业链全景图</title>
  <desc>上游材料与设备 → 中游封装制造 → 下游终端应用，各环节标注代表公司</desc>
  <defs>
    <marker id="arrow" viewBox="0 0 10 10" refX="8" refY="5" markerWidth="6" markerHeight="6" orient="auto-start-reverse">
      <path d="M2 1L8 5L2 9" fill="none" stroke="context-stroke" stroke-width="1.5" stroke-linecap="round" stroke-linejoin="round"/>
    </marker>
  </defs>

  <rect x="40" y="40" width="180" height="36" rx="4" fill="#E6F1FB" stroke="#85B7EB" stroke-width="0.5"/>
  <text x="130" y="62" text-anchor="middle" font-size="13" font-weight="500" fill="#0C447C" font-family="sans-serif">上游 · 材料与设备</text>

  <rect x="250" y="40" width="180" height="36" rx="4" fill="#EAF3DE" stroke="#97C459" stroke-width="0.5"/>
  <text x="340" y="62" text-anchor="middle" font-size="13" font-weight="500" fill="#27500A" font-family="sans-serif">中游 · 封装制造</text>

  <rect x="460" y="40" width="180" height="36" rx="4" fill="#EEEDFE" stroke="#AFA9EC" stroke-width="0.5"/>
  <text x="550" y="62" text-anchor="middle" font-size="13" font-weight="500" fill="#3C3489" font-family="sans-serif">下游 · 终端应用</text>

  <path d="M220 58L248 58" fill="none" stroke="#888780" stroke-width="1" marker-end="url(#arrow)"/>
  <path d="M430 58L458 58" fill="none" stroke="#888780" stroke-width="1" marker-end="url(#arrow)"/>

  <rect x="40" y="100" width="180" height="38" rx="4" fill="white" stroke="#D3D1C7" stroke-width="0.5"/>
  <text x="130" y="123" text-anchor="middle" font-size="13" font-weight="500" fill="#2C2C2A" font-family="sans-serif">封装基板 &amp; IC 载板</text>

  <rect x="40" y="148" width="60" height="30" rx="3" fill="#F1EFE8" stroke="#D3D1C7" stroke-width="0.5"/>
  <text x="70" y="167" text-anchor="middle" font-size="11" fill="#5F5E5A" font-family="sans-serif">深南电路</text>
  <rect x="105" y="148" width="55" height="30" rx="3" fill="#F1EFE8" stroke="#D3D1C7" stroke-width="0.5"/>
  <text x="132" y="167" text-anchor="middle" font-size="11" fill="#5F5E5A" font-family="sans-serif">兴森科技</text>
  <rect x="165" y="148" width="55" height="30" rx="3" fill="#F1EFE8" stroke="#D3D1C7" stroke-width="0.5"/>
  <text x="192" y="167" text-anchor="middle" font-size="11" fill="#5F5E5A" font-family="sans-serif">欣兴电子</text>

  <rect x="40" y="198" width="180" height="38" rx="4" fill="white" stroke="#D3D1C7" stroke-width="0.5"/>
  <text x="130" y="221" text-anchor="middle" font-size="13" font-weight="500" fill="#2C2C2A" font-family="sans-serif">封装材料</text>

  <rect x="40" y="246" width="60" height="30" rx="3" fill="#F1EFE8" stroke="#D3D1C7" stroke-width="0.5"/>
  <text x="70" y="265" text-anchor="middle" font-size="11" fill="#5F5E5A" font-family="sans-serif">雅克科技</text>
  <rect x="105" y="246" width="60" height="30" rx="3" fill="#F1EFE8" stroke="#D3D1C7" stroke-width="0.5"/>
  <text x="135" y="265" text-anchor="middle" font-size="11" fill="#5F5E5A" font-family="sans-serif">上海新阳</text>
  <rect x="170" y="246" width="50" height="30" rx="3" fill="#F1EFE8" stroke="#D3D1C7" stroke-width="0.5"/>
  <text x="195" y="265" text-anchor="middle" font-size="11" fill="#5F5E5A" font-family="sans-serif">康强电子</text>

  <rect x="40" y="296" width="180" height="38" rx="4" fill="white" stroke="#D3D1C7" stroke-width="0.5"/>
  <text x="130" y="319" text-anchor="middle" font-size="13" font-weight="500" fill="#2C2C2A" font-family="sans-serif">封装设备</text>

  <rect x="40" y="344" width="60" height="30" rx="3" fill="#F1EFE8" stroke="#D3D1C7" stroke-width="0.5"/>
  <text x="70" y="363" text-anchor="middle" font-size="11" fill="#5F5E5A" font-family="sans-serif">北方华创</text>
  <rect x="105" y="344" width="60" height="30" rx="3" fill="#F1EFE8" stroke="#D3D1C7" stroke-width="0.5"/>
  <text x="135" y="363" text-anchor="middle" font-size="11" fill="#5F5E5A" font-family="sans-serif">中微公司</text>
  <rect x="170" y="344" width="50" height="30" rx="3" fill="#F1EFE8" stroke="#D3D1C7" stroke-width="0.5"/>
  <text x="195" y="363" text-anchor="middle" font-size="11" fill="#5F5E5A" font-family="sans-serif">华峰测控</text>

  <rect x="250" y="100" width="180" height="38" rx="4" fill="white" stroke="#D3D1C7" stroke-width="0.5"/>
  <text x="340" y="123" text-anchor="middle" font-size="13" font-weight="500" fill="#2C2C2A" font-family="sans-serif">IDM 封装（自研自封）</text>

  <rect x="255" y="148" width="80" height="30" rx="3" fill="#E1F5EE" stroke="#9FE1CB" stroke-width="0.5"/>
  <text x="295" y="167" text-anchor="middle" font-size="11" fill="#085041" font-family="sans-serif">台积电 CoWoS</text>
  <rect x="340" y="148" width="85" height="30" rx="3" fill="#E1F5EE" stroke="#9FE1CB" stroke-width="0.5"/>
  <text x="382" y="167" text-anchor="middle" font-size="11" fill="#085041" font-family="sans-serif">三星 I-Cube</text>

  <rect x="250" y="208" width="180" height="38" rx="4" fill="white" stroke="#D3D1C7" stroke-width="0.5"/>
  <text x="340" y="231" text-anchor="middle" font-size="13" font-weight="500" fill="#2C2C2A" font-family="sans-serif">OSAT 封装（第三方）</text>

  <rect x="252" y="256" width="58" height="30" rx="3" fill="#F1EFE8" stroke="#D3D1C7" stroke-width="0.5"/>
  <text x="281" y="275" text-anchor="middle" font-size="11" fill="#5F5E5A" font-family="sans-serif">日月光</text>
  <rect x="314" y="256" width="58" height="30" rx="3" fill="#F1EFE8" stroke="#D3D1C7" stroke-width="0.5"/>
  <text x="343" y="275" text-anchor="middle" font-size="11" fill="#5F5E5A" font-family="sans-serif">长电科技</text>
  <rect x="376" y="256" width="50" height="30" rx="3" fill="#F1EFE8" stroke="#D3D1C7" stroke-width="0.5"/>
  <text x="401" y="275" text-anchor="middle" font-size="11" fill="#5F5E5A" font-family="sans-serif">通富微电</text>

  <rect x="252" y="292" width="55" height="30" rx="3" fill="#F1EFE8" stroke="#D3D1C7" stroke-width="0.5"/>
  <text x="279" y="311" text-anchor="middle" font-size="11" fill="#5F5E5A" font-family="sans-serif">华天科技</text>
  <rect x="312" y="292" width="55" height="30" rx="3" fill="#F1EFE8" stroke="#D3D1C7" stroke-width="0.5"/>
  <text x="339" y="311" text-anchor="middle" font-size="11" fill="#5F5E5A" font-family="sans-serif">英特尔EMIB</text>

  <rect x="250" y="342" width="180" height="38" rx="4" fill="white" stroke="#D3D1C7" stroke-width="0.5"/>
  <text x="340" y="365" text-anchor="middle" font-size="13" font-weight="500" fill="#2C2C2A" font-family="sans-serif">封装测试</text>

  <rect x="270" y="390" width="70" height="28" rx="3" fill="#F1EFE8" stroke="#D3D1C7" stroke-width="0.5"/>
  <text x="305" y="408" text-anchor="middle" font-size="11" fill="#5F5E5A" font-family="sans-serif">京元电子</text>
  <rect x="345" y="390" width="70" height="28" rx="3" fill="#F1EFE8" stroke="#D3D1C7" stroke-width="0.5"/>
  <text x="380" y="408" text-anchor="middle" font-size="11" fill="#5F5E5A" font-family="sans-serif">利扬芯片</text>

  <rect x="460" y="100" width="180" height="38" rx="4" fill="white" stroke="#D3D1C7" stroke-width="0.5"/>
  <text x="550" y="123" text-anchor="middle" font-size="13" font-weight="500" fill="#2C2C2A" font-family="sans-serif">AI/高性能计算 HPC</text>
  <text x="550" y="148" text-anchor="middle" font-size="11" fill="#5F5E5A" font-family="sans-serif">GPU · FPGA · 服务器CPU</text>

  <rect x="460" y="180" width="180" height="38" rx="4" fill="white" stroke="#D3D1C7" stroke-width="0.5"/>
  <text x="550" y="203" text-anchor="middle" font-size="13" font-weight="500" fill="#2C2C2A" font-family="sans-serif">智能手机</text>
  <text x="550" y="228" text-anchor="middle" font-size="11" fill="#5F5E5A" font-family="sans-serif">处理器 · 射频 · 传感器</text>

  <rect x="460" y="260" width="180" height="38" rx="4" fill="white" stroke="#D3D1C7" stroke-width="0.5"/>
  <text x="550" y="283" text-anchor="middle" font-size="13" font-weight="500" fill="#2C2C2A" font-family="sans-serif">汽车电子</text>
  <text x="550" y="308" text-anchor="middle" font-size="11" fill="#5F5E5A" font-family="sans-serif">自动驾驶 · 功率半导体</text>

  <rect x="460" y="340" width="180" height="38" rx="4" fill="white" stroke="#D3D1C7" stroke-width="0.5"/>
  <text x="550" y="363" text-anchor="middle" font-size="13" font-weight="500" fill="#2C2C2A" font-family="sans-serif">通信 &amp; 数据中心</text>
  <text x="550" y="388" text-anchor="middle" font-size="11" fill="#5F5E5A" font-family="sans-serif">5G基站 · 光模块 · 交换机</text>

  <path d="M220 165L248 165" fill="none" stroke="#888780" stroke-width="0.5" marker-end="url(#arrow)"/>
  <path d="M220 263L248 263" fill="none" stroke="#888780" stroke-width="0.5" marker-end="url(#arrow)"/>
  <path d="M220 361L248 361" fill="none" stroke="#888780" stroke-width="0.5" marker-end="url(#arrow)"/>

  <path d="M430 123L458 123" fill="none" stroke="#888780" stroke-width="0.5" marker-end="url(#arrow)"/>
  <path d="M430 203L458 203" fill="none" stroke="#888780" stroke-width="0.5" marker-end="url(#arrow)"/>
  <path d="M430 283L458 283" fill="none" stroke="#888780" stroke-width="0.5" marker-end="url(#arrow)"/>
  <path d="M430 363L458 363" fill="none" stroke="#888780" stroke-width="0.5" marker-end="url(#arrow)"/>

  <rect x="40" y="460" width="600" height="65" rx="6" fill="#F1EFE8" stroke="none"/>
  <text x="340" y="482" text-anchor="middle" font-size="13" font-weight="500" fill="#2C2C2A" font-family="sans-serif">关键投资逻辑</text>
  <text x="80" y="505" font-size="12" fill="#5F5E5A" font-family="sans-serif">上游材料 · 确定性高</text>
  <text x="260" y="505" font-size="12" fill="#5F5E5A" font-family="sans-serif">中游封装 · 弹性最大</text>
  <text x="450" y="505" font-size="12" fill="#5F5E5A" font-family="sans-serif">下游需求 · 持续拉动</text>
</svg>
