<svg xmlns="http://www.w3.org/2000/svg" viewBox="0 0 680 520" font-family="-apple-system, PingFang SC, Microsoft YaHei, sans-serif">
  <rect width="680" height="520" fill="#FBFBF9"/>
  <text x="24" y="30" font-size="16" font-weight="600" fill="#2C2C2A">AI 终端公司地图（A 股 9 · 港股 4 · 美股 3，共 16 家）</text>

  <!-- A股 column -->
  <g>
    <rect x="24" y="50" width="200" height="446" rx="10" fill="#FFF9F0" stroke="#E0962A"/>
    <text x="124" y="74" text-anchor="middle" font-size="14" font-weight="700" fill="#7A4B05">A 股（9 家）</text>
    <text x="124" y="92" text-anchor="middle" font-size="11" fill="#9A5B00">SoC/CIS/光学/射频/代工 · 国产替代</text>

    <g font-size="11.5">
      <text x="40" y="116" font-weight="600" fill="#2C2C2A">端侧 SoC</text>
      <rect x="40" y="124" width="168" height="26" rx="5" fill="#FFF4E5" stroke="#E0962A"/>
      <text x="124" y="141" text-anchor="middle" fill="#7A4B05">瑞芯微 603893 · 全志 300458</text>
      <rect x="40" y="156" width="168" height="26" rx="5" fill="#FFF4E5" stroke="#E0962A"/>
      <text x="124" y="173" text-anchor="middle" fill="#7A4B05">晶晨 688099 · 恒玄 688608</text>

      <text x="40" y="206" font-weight="600" fill="#2C2C2A">CIS / 光学</text>
      <rect x="40" y="214" width="168" height="26" rx="5" fill="#EAF7EE" stroke="#3C9D5B"/>
      <text x="124" y="231" text-anchor="middle" fill="#1F5E34">韦尔(豪威) 603501 · 水晶 002273</text>

      <text x="40" y="264" font-weight="600" fill="#2C2C2A">射频前端</text>
      <rect x="40" y="272" width="168" height="26" rx="5" fill="#F3ECFB" stroke="#7A52A8"/>
      <text x="124" y="289" text-anchor="middle" fill="#4A2E6E">卓胜微 300782</text>

      <text x="40" y="322" font-weight="600" fill="#2C2C2A">整机 / 代工</text>
      <rect x="40" y="330" width="168" height="26" rx="5" fill="#E8F0FE" stroke="#3B6FB5"/>
      <text x="124" y="347" text-anchor="middle" fill="#1F3A5F">歌尔 002241（代工）</text>
      <rect x="40" y="362" width="168" height="26" rx="5" fill="#E8F0FE" stroke="#3B6FB5"/>
      <text x="124" y="379" text-anchor="middle" fill="#1F3A5F">传音 688036（整机）</text>
    </g>

    <text x="124" y="466" text-anchor="middle" font-size="10.5" fill="#777">确定性看 CIS/光学（韦尔/水晶）</text>
    <text x="124" y="482" text-anchor="middle" font-size="10.5" fill="#777">弹性看 SoC（瑞芯微/恒玄）</text>
  </g>

  <!-- 港股 column -->
  <g>
    <rect x="240" y="50" width="200" height="446" rx="10" fill="#F3ECFB" stroke="#7A52A8"/>
    <text x="340" y="74" text-anchor="middle" font-size="14" font-weight="700" fill="#4A2E6E">港股（4 家）</text>
    <text x="340" y="92" text-anchor="middle" font-size="11" fill="#4A2E6E">整机生态 / 光学龙头 / 代工</text>

    <g font-size="11.5">
      <text x="256" y="116" font-weight="600" fill="#2C2C2A">整机生态</text>
      <rect x="256" y="124" width="168" height="26" rx="5" fill="#FDECEC" stroke="#D9534F"/>
      <text x="340" y="141" text-anchor="middle" fill="#8A2B2B">小米 1810</text>

      <text x="256" y="174" font-weight="600" fill="#2C2C2A">光学龙头</text>
      <rect x="256" y="182" width="168" height="26" rx="5" fill="#EAF7EE" stroke="#3C9D5B"/>
      <text x="340" y="199" text-anchor="middle" fill="#1F5E34">舜宇 2382</text>

      <text x="256" y="232" font-weight="600" fill="#2C2C2A">摄像头模组</text>
      <rect x="256" y="240" width="168" height="26" rx="5" fill="#EAF7EE" stroke="#3C9D5B"/>
      <text x="340" y="257" text-anchor="middle" fill="#1F5E34">丘钛 1478</text>

      <text x="256" y="290" font-weight="600" fill="#2C2C2A">终端代工</text>
      <rect x="256" y="298" width="168" height="26" rx="5" fill="#E8F0FE" stroke="#3B6FB5"/>
      <text x="340" y="315" text-anchor="middle" fill="#1F3A5F">比亚迪电子 0285</text>
    </g>

    <text x="340" y="466" text-anchor="middle" font-size="10.5" fill="#777">小米=港股最纯端侧整机</text>
    <text x="340" y="482" text-anchor="middle" font-size="10.5" fill="#777">舜宇=光学全球第一</text>
  </g>

  <!-- 美股 column -->
  <g>
    <rect x="456" y="50" width="200" height="446" rx="10" fill="#FDECEC" stroke="#D9534F"/>
    <text x="556" y="74" text-anchor="middle" font-size="14" font-weight="700" fill="#8A2B2B">美股（3 家）</text>
    <text x="556" y="92" text-anchor="middle" font-size="11" fill="#8A2B2B">SoC 标杆 / 整机 / AI PC CPU</text>

    <g font-size="11.5">
      <text x="472" y="116" font-weight="600" fill="#2C2C2A">自研 SoC 整机</text>
      <rect x="472" y="124" width="168" height="26" rx="5" fill="#FDECEC" stroke="#D9534F"/>
      <text x="556" y="141" text-anchor="middle" fill="#8A2B2B">Apple AAPL</text>

      <text x="472" y="174" font-weight="600" fill="#2C2C2A">骁龙端侧 AI</text>
      <rect x="472" y="182" width="168" height="26" rx="5" fill="#FDECEC" stroke="#D9534F"/>
      <text x="556" y="199" text-anchor="middle" fill="#8A2B2B">Qualcomm QCOM</text>

      <text x="472" y="232" font-weight="600" fill="#2C2C2A">AI PC CPU</text>
      <rect x="472" y="240" width="168" height="26" rx="5" fill="#FDECEC" stroke="#D9534F"/>
      <text x="556" y="257" text-anchor="middle" fill="#8A2B2B">Intel INTC</text>
    </g>

    <rect x="472" y="300" width="168" height="120" rx="8" fill="#FFF9F0" stroke="#E0962A" stroke-dasharray="5 4"/>
    <text x="556" y="324" text-anchor="middle" font-size="11.5" font-weight="600" fill="#9A5B00">端侧 AI 定义者</text>
    <text x="556" y="346" text-anchor="middle" font-size="11" fill="#5A3A00">Apple Intelligence</text>
    <text x="556" y="364" text-anchor="middle" font-size="11" fill="#5A3A00">（全球装机最大）</text>
    <text x="556" y="386" text-anchor="middle" font-size="11" fill="#5A3A00">骁龙=安卓端侧</text>
    <text x="556" y="404" text-anchor="middle" font-size="11" fill="#5A3A00">AI 算力底座</text>

    <text x="556" y="466" text-anchor="middle" font-size="10.5" fill="#777">SoC/整机标杆在美</text>
    <text x="556" y="482" text-anchor="middle" font-size="10.5" fill="#777">微软/AMD/谷歌见他板块</text>
  </g>

  <text x="24" y="512" font-size="10" fill="#999">注：本图为标的索引分组，按市场/环节归类，非规模比例。财务见各子文件（neodata，东方财富）。</text>
</svg>
